<?xml version="1.0" encoding="utf-8"?>
<!-- Generator: Adobe Illustrator 27.5.0, SVG Export Plug-In . SVG Version: 6.00 Build 0)  -->
<svg version="1.1" id="Capa_1" xmlns="http://www.w3.org/2000/svg" xmlns:xlink="http://www.w3.org/1999/xlink" x="0px" y="0px"
	 viewBox="0 0 2122 2122" style="enable-background:new 0 0 2122 2122;" xml:space="preserve">
<path style="fill:#E2F3FE;" d="M2037.004,449.204c0.209-1.384,0.412-2.762,0.612-4.141c0.414-2.748,0.797-5.493,1.145-8.234
	c3.476-26.221,5.101-50.867,3.875-71.603c-0.026-0.468-0.056-0.933-0.087-1.396l-0.054-0.821c-0.036-0.526-0.075-1.047-0.117-1.566
	l-0.051-0.66c-0.048-0.58-0.097-1.155-0.151-1.727l-0.049-0.556c-0.058-0.607-0.117-1.21-0.18-1.81l-0.047-0.436
	c-0.068-0.638-0.139-1.272-0.214-1.9l-0.039-0.327c-0.075-0.611-0.151-1.218-0.232-1.822l-0.02-0.139l-0.044-0.329l-0.136-0.96
	l-0.173-1.177l-0.056-0.368c-0.198-1.291-0.41-2.555-0.636-3.795l-0.034-0.256l-0.224-1.057c-1.225-6.231-2.858-11.866-4.945-16.797
	c-23.846-56.27-144.592-75.586-215.858-82.429c-116.96-11.286-236.161-4.355-351.615,16.546
	c-54.345,9.842-108.046,22.93-160.818,39.07c-33.525,10.173-66.666,21.646-99.335,34.309c-13.963,5.362-27.785,11.018-41.581,16.877
	C1045.251,402.675,931.394,470.02,828.776,551.27c-39.493,31.308-77.342,64.716-113.25,100.088l0.107-0.146
	c1.047-1.442,2.087-2.874,3.128-4.311l0.198-0.273c0,0-11.286-21.111-32.049-44.556l-0.129-0.146
	c-0.746-0.838-1.501-1.676-2.266-2.519l-0.595-0.653c-0.597-0.648-1.201-1.301-1.813-1.954l-0.611-0.653
	c-1.23-1.306-2.489-2.616-3.778-3.922l-0.645-0.653c-1.191-1.203-2.405-2.402-3.642-3.596l-0.663-0.638
	c-5.091-4.882-10.568-9.696-16.421-14.275l-1.123-0.872l-1.235-0.945c-0.529-0.4-1.06-0.799-1.595-1.198
	c-1.338-0.994-2.692-1.973-4.064-2.933l-0.826-0.58c-1.932-1.34-3.9-2.651-5.903-3.927c-0.57-0.366-1.145-0.726-1.725-1.087
	c-0.865-0.536-1.739-1.067-2.616-1.593l-0.882-0.521c-1.179-0.692-2.368-1.369-3.569-2.036c-0.599-0.332-1.203-0.663-1.807-0.984
	c-0.607-0.326-1.216-0.648-1.827-0.969l-0.919-0.473c-1.842-0.945-3.708-1.856-5.601-2.728c-1.893-0.873-3.808-1.71-5.746-2.505
	c-0.648-0.268-1.299-0.526-1.949-0.784l-0.981-0.38c-0.653-0.253-1.311-0.497-1.971-0.74l-1.252-0.454
	c-0.577-0.204-1.157-0.409-1.737-0.604c-2.005-0.687-4.032-1.325-6.085-1.914l-1.25-0.356c-0.957-0.263-1.917-0.521-2.884-0.765
	c-2.083-0.526-4.19-1.004-6.319-1.433c-0.709-0.141-1.42-0.277-2.136-0.404c-0.714-0.132-1.432-0.253-2.151-0.375
	c-1.082-0.176-2.166-0.336-3.257-0.487c-0.69-0.092-1.379-0.18-2.071-0.263l-1.22-0.141c-7.352-0.804-14.953-0.96-22.791-0.361
	c-0.785,0.058-1.569,0.127-2.358,0.205c-1.578,0.151-3.164,0.331-4.763,0.546c-0.797,0.107-1.598,0.219-2.399,0.341
	c-1.206,0.185-2.414,0.39-3.63,0.609c-0.811,0.146-1.622,0.302-2.436,0.468c-1.223,0.243-2.451,0.506-3.683,0.789
	c-0.821,0.19-1.644,0.39-2.471,0.594c-0.826,0.21-1.654,0.424-2.484,0.643c-0.831,0.224-1.664,0.458-2.5,0.702
	c-0.836,0.238-1.671,0.487-2.511,0.75c-0.841,0.258-1.683,0.526-2.526,0.804c-2.534,0.833-5.086,1.744-7.659,2.743
	c-0.858,0.331-1.718,0.677-2.58,1.028l-1.294,0.536c-0.865,0.36-1.73,0.73-2.599,1.111c-1.164,0.512-2.333,1.043-3.508,1.589
	c-0.575,0.268-1.152,0.541-1.73,0.818l-1.318,0.639c-2.397,1.174-4.811,2.421-7.242,3.746c-0.69,0.375-1.379,0.755-2.069,1.145
	c-1.342,0.755-2.689,1.53-4.039,2.329c-0.451,0.268-0.901,0.541-1.354,0.809c-2.256,1.365-4.526,2.792-6.809,4.288
	c-0.913,0.599-1.829,1.208-2.745,1.827c-2.293,1.555-4.599,3.172-6.919,4.867c-0.928,0.678-1.856,1.365-2.787,2.061
	c-0.933,0.702-1.866,1.413-2.801,2.134c-0.568,0.438-1.135,0.882-1.703,1.33c-1.048,0.824-2.1,1.661-3.155,2.514
	c-0.731,0.595-1.462,1.189-2.197,1.798c-0.945,0.779-1.893,1.573-2.841,2.382c-1.203,1.018-2.409,2.061-3.617,3.118l-1.342,1.184
	c-2.646,2.344-5.303,4.78-7.976,7.308c-0.485,0.458-0.969,0.921-1.452,1.383c-0.723,0.697-1.449,1.398-2.175,2.105
	c-0.731,0.716-1.464,1.432-2.197,2.163c-0.974,0.965-1.951,1.944-2.931,2.938c-0.736,0.745-1.476,1.505-2.215,2.265
	c-0.733,0.755-1.464,1.515-2.2,2.285c-0.984,1.033-1.968,2.075-2.957,3.133c-0.986,1.057-1.976,2.129-2.967,3.211
	c-2.709,2.962-5.43,6.027-8.165,9.189c-0.538,0.624-1.077,1.247-1.615,1.875c-0.733,0.858-1.466,1.72-2.202,2.592
	c-0.501,0.594-1.006,1.193-1.51,1.798c-3.023,3.615-6.061,7.362-9.116,11.23c-1.018,1.291-2.039,2.592-3.06,3.912
	c-0.512,0.658-1.023,1.32-1.535,1.988c-0.733,0.955-1.467,1.92-2.2,2.884c-0.935,1.238-1.873,2.485-2.811,3.742
	c-0.899,1.203-1.798,2.417-2.697,3.64c-0.516,0.706-1.033,1.408-1.549,2.119c-1.25,1.715-2.502,3.454-3.754,5.214
	c-0.609,0.853-1.216,1.71-1.825,2.572c-0.58,0.818-1.16,1.642-1.739,2.475c-1.198,1.71-2.397,3.44-3.601,5.194
	c-1.917,2.796-3.839,5.642-5.766,8.536c-0.702,1.057-1.403,2.115-2.107,3.182c-2.633,4-5.279,8.098-7.934,12.292
	c-0.858,1.354-1.718,2.724-2.577,4.097c-2.124,3.401-4.256,6.865-6.392,10.392c-0.424,0.696-0.848,1.398-1.272,2.105
	c-1.71,2.835-3.425,5.719-5.142,8.638c-0.446,0.76-0.892,1.52-1.338,2.28c-0.514,0.877-1.028,1.759-1.54,2.646
	c-0.687,1.179-1.372,2.363-2.056,3.557c-1.045,1.817-2.092,3.649-3.143,5.496c-2.105,3.712-4.214,7.488-6.331,11.323
	c-0.599,1.087-1.199,2.178-1.8,3.279c-0.497,0.906-0.994,1.818-1.491,2.729c-0.592,1.091-1.184,2.183-1.778,3.284
	c-1.055,1.959-2.112,3.927-3.172,5.914c-0.582,1.097-1.164,2.193-1.749,3.299c-0.521,0.984-1.04,1.973-1.562,2.962
	c-1.125,2.144-2.25,4.302-3.379,6.48c-2.75,5.31-5.51,10.728-8.278,16.253c-1.109,2.212-2.219,4.443-3.33,6.689
	c-1.126,2.275-2.251,4.565-3.376,6.874c-0.543,1.116-1.089,2.232-1.632,3.357c-0.577,1.189-1.157,2.387-1.734,3.591
	c-1.097,2.276-2.193,4.565-3.291,6.879c-0.592,1.238-1.181,2.485-1.774,3.737c-0.828,1.754-1.656,3.513-2.484,5.281
	c-1.995,4.263-3.993,8.585-5.998,12.96c-0.823,1.802-1.646,3.61-2.473,5.432c-0.879,1.934-1.759,3.888-2.638,5.847
	c-0.996,2.217-1.995,4.453-2.994,6.699c-2.497,5.618-4.999,11.328-7.508,17.125c-0.419,0.969-0.838,1.939-1.257,2.914
	c-1.228,2.845-2.456,5.715-3.683,8.609c-0.487,1.14-0.974,2.29-1.462,3.439c-1.815,4.288-3.632,8.624-5.452,13.009
	c-0.478,1.149-0.955,2.304-1.432,3.459c-4.144,10.027-8.305,20.307-12.483,30.845c-0.46,1.155-0.918,2.319-1.379,3.484
	c-2.453,6.217-4.913,12.521-7.376,18.914c-0.448,1.169-0.899,2.334-1.347,3.508c-0.721,1.881-1.444,3.766-2.168,5.667
	c-0.443,1.169-0.889,2.338-1.335,3.513c-3.075,8.102-6.158,16.346-9.25,24.731c-0.431,1.174-0.865,2.353-1.298,3.532
	c-7.238,19.713-14.519,40.205-21.841,61.5c-0.407,1.189-0.816,2.383-1.225,3.576c-13.508,39.43-27.15,81.598-40.914,126.675
	c0.268,0.229,0.899,0.735,1.773,1.432l0.458,0.36c0.794,0.629,1.749,1.379,2.794,2.193l0.317,0.249l1.313,1.018l0.338,0.258
	l0.687,0.531l0.697,0.536l0.701,0.536l0.353,0.268l0.706,0.541c2.943,2.236,5.856,4.389,7.715,5.627
	C321.298,910.08,448.776,900.658,504.599,915.664c-23.026,36.351-44.609,73.987-63.861,112.638l-0.003-0.005l-0.468,0.95
	c-0.227,0.453-0.453,0.906-0.677,1.359c-0.482,0.979-0.965,1.954-1.445,2.928l-0.295,0.6c-0.58,1.179-1.157,2.363-1.734,3.547
	l-0.073,0.156c-11.5,23.649-22.102,47.674-31.61,72.01l-0.066,0.171c-0.483,1.233-0.962,2.47-1.437,3.703l-0.197,0.516
	c-0.407,1.057-0.814,2.114-1.216,3.177l-0.44,1.16c-0.336,0.887-0.668,1.773-1.001,2.66c-0.195,0.521-0.392,1.042-0.585,1.564
	c-0.28,0.75-0.56,1.506-0.838,2.256c-0.243,0.657-0.487,1.32-0.731,1.978c-0.224,0.614-0.448,1.232-0.672,1.847
	c-0.29,0.794-0.58,1.588-0.868,2.382c-0.168,0.468-0.336,0.935-0.504,1.403c-0.346,0.964-0.692,1.929-1.033,2.894l-0.28,0.789
	c-0.414,1.169-0.826,2.333-1.233,3.503l-0.075,0.22c-3.323,9.524-6.47,19.099-9.43,28.706c-1.077-3.187-2.124-6.359-3.138-9.516
	c-14.891,44.901-25.781,90.714-31.447,137.072c-1.294,10.592-0.577,22.607,1.785,35.62
	c-88.896,31.259-244.491,121.505-272.752,381.237c0,0,266.083,111.537,460.531-92.102c27.145,12.073,74.37,14.539,131.556,10.592
	c-1.912-2.031-3.837-4.097-5.771-6.192c79.836-4.093,182.092-22.032,276.519-44.224c9.849,48.258,3.749,187.591-351.673,280.423
	c1.486,3.547,5.023,10.665,7.464,15.454l0.495,0.965c0.263,0.516,0.511,0.999,0.733,1.427c0.582,1.125,1.011,1.934,1.199,2.271
	c132.414-13.827,241.861-31.148,332.017-50.87c1.41-0.307,2.813-0.614,4.212-0.926c50.375-11.138,94.662-23.026,133.517-35.479
	c1.079-0.346,2.154-0.691,3.225-1.038c20.348-6.592,39.186-13.335,56.614-20.205c0.918-0.36,1.829-0.721,2.74-1.086
	c12.73-5.072,24.699-10.207,35.942-15.406c0.804-0.371,1.603-0.741,2.397-1.116c3.978-1.856,7.866-3.722,11.662-5.593
	c0.757-0.375,1.513-0.75,2.266-1.125c4.511-2.251,8.894-4.507,13.147-6.777c0.709-0.375,1.415-0.755,2.117-1.13
	c2.809-1.515,5.562-3.03,8.258-4.556c2.025-1.14,4.015-2.28,5.976-3.425c9.154-5.34,17.637-10.719,25.493-16.122
	c0.56-0.39,1.118-0.774,1.674-1.16c3.328-2.319,6.541-4.643,9.642-6.972c0.516-0.39,1.03-0.775,1.542-1.164
	c2.041-1.555,4.034-3.109,5.978-4.663c1.459-1.17,2.889-2.334,4.292-3.503c1.871-1.559,3.695-3.118,5.471-4.677
	c2.222-1.949,4.368-3.902,6.443-5.856c3.321-3.123,6.456-6.251,9.415-9.379c0.741-0.784,1.469-1.564,2.185-2.348
	c0.719-0.779,1.425-1.564,2.122-2.343c1.391-1.564,2.74-3.128,4.047-4.692c0.653-0.785,1.296-1.564,1.929-2.348l0.94-1.169
	c1.554-1.954,3.042-3.907,4.468-5.856l0.848-1.174c0.56-0.779,1.11-1.559,1.649-2.338c1.62-2.339,3.15-4.677,4.594-7.011
	c0.479-0.775,0.952-1.554,1.413-2.329l0.687-1.169c0.45-0.775,0.894-1.549,1.328-2.324l0.643-1.164
	c0.424-0.775,0.838-1.55,1.245-2.324c0.811-1.55,1.586-3.094,2.324-4.638c0.37-0.775,0.728-1.545,1.082-2.314l0.519-1.159
	c0.344-0.77,0.677-1.54,1.001-2.304c6.665-15.766,9.674-31.25,9.99-46.173c0.032-1.452,0.037-2.904,0.017-4.351
	c-0.017-1.442-0.063-2.879-0.129-4.317c-0.12-2.505-0.312-4.994-0.57-7.469l-0.117-1.057c-0.12-1.052-0.251-2.109-0.395-3.157
	c-0.095-0.696-0.198-1.398-0.305-2.09c-0.158-1.048-0.331-2.085-0.514-3.123c-0.365-2.071-0.777-4.127-1.23-6.168
	c-0.151-0.682-0.307-1.359-0.468-2.036l-0.246-1.013c-0.329-1.349-0.677-2.689-1.043-4.024c-0.185-0.667-0.37-1.33-0.563-1.993
	c-0.287-0.994-0.585-1.983-0.889-2.972c-0.205-0.653-0.412-1.311-0.624-1.964c-0.212-0.653-0.429-1.301-0.648-1.949
	c-0.66-1.949-1.352-3.874-2.078-5.783c-0.241-0.633-0.485-1.267-0.733-1.895c-0.248-0.633-0.502-1.262-0.755-1.89
	c-0.765-1.88-1.562-3.737-2.382-5.574c-0.273-0.614-0.548-1.223-0.828-1.832c-0.28-0.609-0.563-1.213-0.848-1.817
	c-0.283-0.604-0.573-1.203-0.863-1.802c-1.449-2.992-2.967-5.92-4.531-8.78c-0.47-0.863-0.945-1.715-1.425-2.563
	c-0.319-0.565-0.639-1.125-0.962-1.686l-0.485-0.833c-0.324-0.56-0.651-1.111-0.979-1.661l-0.492-0.828
	c-1.318-2.192-2.658-4.336-4.017-6.441c-0.341-0.526-0.682-1.048-1.023-1.564c-3.588-5.457-7.281-10.582-10.952-15.347l-0.526-0.677
	c-2.446-3.157-4.877-6.144-7.26-8.96l-0.509-0.604l-0.009-0.009c121.793-58.938,235.101-135.406,334.516-227.23
	c65.001-60.063,123.888-126.49,176.017-197.895c9.757-13.442,19.289-27.011,28.634-40.813
	c22.592-33.442,43.798-67.893,63.435-103.177c43.988-78.909,80.385-162.002,108.446-247.834c1.364-4.19,2.84-8.711,4.326-13.544
	c1.135-3.591,2.29-7.391,3.484-11.299c1.196-3.912,2.419-7.98,3.673-12.209c0.821-2.816,1.632-5.686,2.49-8.614
	c1.286-4.39,2.558-8.882,3.818-13.476c1.308-4.604,2.553-9.3,3.836-14.104l0.005-0.053c0.205-0.76,0.409-1.52,0.614-2.29
	c1.106-4.064,2.18-8.166,3.242-12.341c0.361-1.335,0.689-2.66,1.009-3.99c0.582-2.29,1.162-4.594,1.739-6.908
	c2.039-8.117,4.02-16.405,5.951-24.794c1.708-7.405,3.355-14.899,4.933-22.414c0.221-1.05,0.441-2.097,0.657-3.148l0.222-1.067
	c0.329-1.601,0.656-3.201,0.979-4.801l0.036-0.18c0.329-1.634,0.656-3.269,0.977-4.904l0.103-0.511
	c0.246-1.262,0.492-2.522,0.733-3.781l0.246-1.259c1.014-5.24,1.973-10.524,2.887-15.749c0.543-3.013,1.042-6.056,1.51-9.067
	c0.188-1.157,0.373-2.314,0.558-3.469C2036.402,453.221,2036.714,451.216,2037.004,449.204z"/>
<path style="fill:#EAE325;" d="M538.097,1620.769c-10.19-4.653-23.781-15.912-39.026-31.742
	c-15.642-16.239-33.025-37.291-50.263-60.955c-66.18,34.397-127.13,64.478-171.98,86.168
	c-46.324,22.397-75.476,35.844-75.476,35.844l-15.086-23.148c0,0,25.157-22.192,65.912-56.818
	c37.82-32.127,89.074-74.957,146.122-120.687c-12.779-22.826-24.037-45.915-32.589-67.893c-6.799-17.462-11.89-34.221-14.682-49.588
	c-88.896,31.259-244.491,121.505-272.752,381.237c0,0,266.083,111.537,460.531-92.102L538.097,1620.769z"/>
<path style="fill:#D34734;" d="M712.533,635.927c-0.97-1.51-2.047-3.152-3.228-4.906c-0.646-0.96-1.32-1.949-2.026-2.968
	c-0.473-0.682-0.957-1.374-1.457-2.08c-0.497-0.706-1.011-1.422-1.537-2.153l-0.799-1.106c-0.538-0.74-1.091-1.491-1.659-2.256
	c-0.424-0.57-0.858-1.145-1.299-1.73c-0.733-0.97-1.486-1.959-2.263-2.958c-2.015-2.592-4.17-5.276-6.463-8.014
	c-0.882-1.057-1.783-2.119-2.707-3.187c-0.716-0.828-1.444-1.661-2.185-2.5l-0.129-0.146l-1.092-1.223l-1.174-1.296l-0.595-0.653
	c-0.597-0.648-1.201-1.301-1.813-1.954l-0.611-0.653c-0.821-0.872-1.654-1.744-2.499-2.616l-1.279-1.306l-0.645-0.653
	c-1.191-1.203-2.405-2.402-3.642-3.596l-0.663-0.638c-1.698-1.627-3.44-3.25-5.223-4.857c-0.714-0.643-1.432-1.282-2.158-1.92
	c-1.213-1.062-2.441-2.114-3.688-3.162c-0.75-0.629-1.505-1.252-2.268-1.871c-0.506-0.414-1.018-0.828-1.532-1.237
	c-0.514-0.41-1.03-0.819-1.552-1.228l-1.123-0.872l-1.235-0.945c-0.529-0.4-1.06-0.799-1.595-1.198
	c-0.802-0.595-1.611-1.184-2.426-1.769c-0.541-0.395-1.089-0.78-1.637-1.164l-0.826-0.58c-0.828-0.575-1.664-1.145-2.505-1.705
	c-1.121-0.75-2.253-1.491-3.398-2.222c-0.57-0.366-1.145-0.726-1.725-1.087c-0.865-0.536-1.739-1.067-2.616-1.593l-0.882-0.521
	c-1.179-0.692-2.368-1.369-3.569-2.036c-0.599-0.332-1.203-0.663-1.807-0.984c-0.607-0.326-1.216-0.648-1.827-0.969l-0.919-0.473
	c-0.921-0.473-1.849-0.935-2.782-1.388c-0.933-0.458-1.873-0.902-2.819-1.34c-1.893-0.873-3.808-1.71-5.746-2.505
	c-0.648-0.268-1.299-0.526-1.949-0.784l-0.981-0.38c-0.653-0.253-1.311-0.497-1.971-0.74l-1.252-0.454
	c-0.577-0.204-1.157-0.409-1.737-0.604c-2.005-0.687-4.032-1.325-6.085-1.914l-1.25-0.356c-0.957-0.263-1.917-0.521-2.884-0.765
	c-2.083-0.526-4.19-1.004-6.319-1.433c-0.709-0.141-1.42-0.277-2.136-0.404c-0.714-0.132-1.432-0.253-2.151-0.375
	c-1.082-0.176-2.166-0.336-3.257-0.487c-0.69-0.092-1.379-0.18-2.071-0.263l-1.22-0.141c-7.352-0.804-14.953-0.96-22.791-0.361
	c-0.785,0.058-1.569,0.127-2.358,0.205c-1.578,0.151-3.164,0.331-4.763,0.546c-0.797,0.107-1.598,0.219-2.399,0.341
	c-1.206,0.185-2.414,0.39-3.63,0.609c-0.811,0.146-1.622,0.302-2.436,0.468c-1.223,0.243-2.451,0.506-3.683,0.789
	c-0.821,0.19-1.644,0.39-2.471,0.594c-0.826,0.21-1.654,0.424-2.484,0.643c-0.831,0.224-1.664,0.458-2.5,0.702
	c-0.836,0.238-1.671,0.487-2.511,0.75c-0.841,0.258-1.683,0.526-2.526,0.804c-2.534,0.833-5.086,1.744-7.659,2.743
	c-0.858,0.331-1.718,0.677-2.58,1.028l-1.294,0.536c-0.865,0.36-1.73,0.73-2.599,1.111c-1.164,0.512-2.333,1.043-3.508,1.589
	c-0.575,0.268-1.152,0.541-1.73,0.818l-1.318,0.639c-2.397,1.174-4.811,2.421-7.242,3.746c-0.69,0.375-1.379,0.755-2.069,1.145
	c-1.342,0.755-2.689,1.53-4.039,2.329c-0.451,0.268-0.901,0.541-1.354,0.809c-2.256,1.365-4.526,2.792-6.809,4.288
	c-0.913,0.599-1.829,1.208-2.745,1.827c-2.293,1.555-4.599,3.172-6.919,4.867c-0.928,0.678-1.856,1.365-2.787,2.061
	c-0.933,0.702-1.866,1.413-2.801,2.134c-0.568,0.438-1.135,0.882-1.703,1.33c-1.048,0.824-2.1,1.661-3.155,2.514
	c-0.731,0.595-1.462,1.189-2.197,1.798c-0.945,0.779-1.893,1.573-2.841,2.382c-1.203,1.018-2.409,2.061-3.617,3.118l-1.342,1.184
	c-2.646,2.344-5.303,4.78-7.976,7.308c-0.485,0.458-0.969,0.921-1.452,1.383c-0.723,0.697-1.449,1.398-2.175,2.105
	c-0.731,0.716-1.464,1.432-2.197,2.163c-0.974,0.965-1.951,1.944-2.931,2.938c-0.736,0.745-1.476,1.505-2.215,2.265
	c-0.733,0.755-1.464,1.515-2.2,2.285c-0.984,1.033-1.968,2.075-2.957,3.133c-0.986,1.057-1.976,2.129-2.967,3.211
	c-2.709,2.962-5.43,6.027-8.165,9.189c-0.538,0.624-1.077,1.247-1.615,1.875c-0.733,0.858-1.466,1.72-2.202,2.592
	c-0.501,0.594-1.006,1.193-1.51,1.798c-1.006,1.203-2.017,2.426-3.028,3.659c-1.111,1.36-2.227,2.734-3.342,4.122
	c-0.914,1.14-1.829,2.285-2.746,3.449c-1.018,1.291-2.039,2.592-3.06,3.912c-0.512,0.658-1.023,1.32-1.535,1.988
	c-0.733,0.955-1.467,1.92-2.2,2.884c-0.935,1.238-1.873,2.485-2.811,3.742c-0.899,1.203-1.798,2.417-2.697,3.64
	c-0.516,0.706-1.033,1.408-1.549,2.119c-1.25,1.715-2.502,3.454-3.754,5.214c-0.609,0.853-1.216,1.71-1.825,2.572
	c-0.58,0.818-1.16,1.642-1.739,2.475c-1.198,1.71-2.397,3.44-3.601,5.194c-1.917,2.796-3.839,5.642-5.766,8.536
	c-0.702,1.057-1.403,2.115-2.107,3.182c-2.633,4-5.279,8.098-7.934,12.292c-0.858,1.354-1.715,2.724-2.577,4.097
	c-2.124,3.401-4.256,6.865-6.392,10.392c-0.424,0.696-0.848,1.398-1.272,2.105c-1.71,2.835-3.425,5.719-5.142,8.638
	c-0.446,0.76-0.892,1.515-1.338,2.28c-0.514,0.877-1.028,1.759-1.54,2.646c-0.687,1.179-1.372,2.363-2.056,3.557
	c-1.045,1.817-2.092,3.649-3.143,5.496c-1.578,2.787-3.16,5.603-4.746,8.458c-0.528,0.955-1.057,1.91-1.586,2.865
	c-0.599,1.087-1.199,2.178-1.8,3.279c-0.497,0.906-0.994,1.818-1.491,2.729c-0.592,1.091-1.184,2.183-1.778,3.284
	c-1.055,1.959-2.112,3.927-3.172,5.914c-0.582,1.097-1.164,2.193-1.749,3.299c-0.521,0.984-1.04,1.973-1.562,2.962
	c-1.125,2.144-2.25,4.302-3.379,6.48c-0.687,1.325-1.371,2.65-2.058,3.985c-0.685,1.335-1.372,2.68-2.059,4.029
	c-0.346,0.677-0.695,1.359-1.04,2.042c-0.692,1.369-1.386,2.743-2.08,4.122c-0.346,0.691-0.695,1.378-1.04,2.075
	c-1.109,2.212-2.219,4.443-3.33,6.689c-1.126,2.275-2.251,4.565-3.376,6.874c-0.543,1.116-1.089,2.232-1.632,3.357
	c-0.577,1.189-1.157,2.387-1.734,3.591c-1.097,2.276-2.193,4.565-3.291,6.879c-0.592,1.238-1.181,2.485-1.774,3.737
	c-0.828,1.754-1.656,3.513-2.484,5.281c-0.996,2.134-1.995,4.278-2.994,6.436c-1.001,2.163-2,4.336-3.004,6.524
	c-0.823,1.802-1.646,3.61-2.473,5.432c-0.879,1.934-1.759,3.888-2.638,5.847c-0.996,2.217-1.995,4.453-2.994,6.699
	c-2.497,5.618-4.999,11.328-7.508,17.125c-0.419,0.969-0.838,1.939-1.257,2.914c-1.228,2.845-2.456,5.715-3.683,8.609
	c-0.487,1.14-0.974,2.29-1.462,3.439c-1.815,4.288-3.632,8.624-5.452,13.009c-0.478,1.149-0.955,2.304-1.432,3.459
	c-4.144,10.027-8.305,20.307-12.483,30.845c-0.46,1.155-0.918,2.319-1.379,3.484c-2.453,6.217-4.913,12.521-7.376,18.914
	c-0.448,1.169-0.899,2.334-1.347,3.508c-0.721,1.881-1.444,3.771-2.168,5.667c-0.443,1.169-0.889,2.338-1.335,3.513
	c-3.075,8.102-6.158,16.346-9.25,24.731c-0.431,1.174-0.865,2.353-1.298,3.532c-7.238,19.713-14.519,40.205-21.841,61.5
	c-0.407,1.189-0.816,2.383-1.225,3.576c-13.508,39.43-27.15,81.598-40.914,126.675c0.268,0.229,0.899,0.735,1.773,1.432l0.458,0.36
	l0.755,0.6l1.126,0.882l0.913,0.711l0.317,0.249l1.313,1.018l0.338,0.258l0.687,0.531l0.697,0.536l0.701,0.536l0.353,0.268
	l0.706,0.541c2.943,2.236,5.856,4.389,7.715,5.627C321.298,910.08,448.776,900.658,504.599,915.664
	c25.948-40.965,53.729-80.298,82.071-117.627c1.654-2.178,3.308-4.346,4.962-6.509c37.946-49.569,79.432-96.375,123.895-140.17
	l0.107-0.146c1.045-1.442,2.087-2.874,3.128-4.311l0.198-0.273C718.954,646.622,716.761,642.519,712.533,635.927z"/>
<path style="fill:#D34734;" d="M1326.398,1580.043c-0.017-1.442-0.063-2.879-0.129-4.317c-0.034-0.716-0.076-1.432-0.12-2.144
	c-0.046-0.716-0.097-1.427-0.156-2.134c-0.085-1.067-0.185-2.129-0.295-3.191l-0.117-1.057c-0.12-1.052-0.251-2.109-0.395-3.157
	c-0.095-0.696-0.198-1.398-0.305-2.09c-0.158-1.048-0.331-2.085-0.514-3.123c-0.365-2.071-0.777-4.127-1.23-6.168
	c-0.151-0.682-0.307-1.359-0.468-2.036l-0.246-1.013c-0.329-1.349-0.677-2.689-1.043-4.024c-0.185-0.667-0.37-1.33-0.563-1.993
	c-0.287-0.994-0.585-1.983-0.889-2.972c-0.205-0.653-0.412-1.311-0.624-1.964c-0.212-0.653-0.429-1.301-0.648-1.949
	c-0.66-1.949-1.352-3.874-2.078-5.783c-0.241-0.633-0.485-1.267-0.733-1.895c-0.248-0.633-0.502-1.262-0.755-1.89
	c-0.255-0.624-0.514-1.247-0.774-1.871c-0.524-1.242-1.06-2.48-1.608-3.703c-0.273-0.614-0.548-1.223-0.828-1.832
	c-0.28-0.609-0.563-1.213-0.848-1.817c-0.283-0.604-0.573-1.203-0.863-1.802c-0.434-0.896-0.875-1.788-1.323-2.675
	c-0.446-0.887-0.899-1.764-1.355-2.641c-0.609-1.164-1.228-2.319-1.854-3.464c-0.47-0.863-0.945-1.715-1.425-2.563
	c-0.319-0.565-0.639-1.125-0.962-1.686l-0.485-0.833c-0.324-0.56-0.651-1.111-0.979-1.661l-0.492-0.828
	c-1.318-2.192-2.658-4.336-4.017-6.441c-0.341-0.526-0.682-1.048-1.023-1.564c-0.341-0.521-0.684-1.038-1.028-1.549
	c-2.061-3.084-4.153-6.056-6.251-8.916c-0.351-0.477-0.699-0.95-1.05-1.418c-0.875-1.174-1.752-2.329-2.624-3.464l-0.526-0.677
	c-1.223-1.579-2.441-3.113-3.654-4.609c-1.21-1.491-2.414-2.943-3.605-4.351l-0.509-0.604l-0.009-0.009
	c-64.689,31.303-131.771,57.661-200.436,78.752c-1.727,0.531-3.454,1.057-5.184,1.578c-39.108,11.859-83.739,23.83-130.27,34.768
	c9.849,48.258,3.749,187.591-351.673,280.423c1.486,3.547,5.023,10.665,7.464,15.454l0.495,0.965
	c0.263,0.516,0.511,0.999,0.733,1.427l0.599,1.15l0.28,0.531l0.319,0.59c132.414-13.827,241.861-31.148,332.017-50.87
	c1.41-0.307,2.813-0.614,4.212-0.926c50.375-11.138,94.662-23.026,133.517-35.479c1.079-0.346,2.154-0.691,3.225-1.038
	c20.348-6.592,39.186-13.335,56.614-20.205c0.918-0.36,1.829-0.721,2.74-1.086c12.73-5.072,24.699-10.207,35.942-15.406
	c0.804-0.371,1.603-0.741,2.397-1.116c3.978-1.856,7.866-3.722,11.662-5.593c0.757-0.375,1.513-0.75,2.266-1.125
	c4.511-2.251,8.894-4.507,13.147-6.777c0.709-0.375,1.415-0.755,2.117-1.13c2.809-1.515,5.562-3.03,8.258-4.556
	c2.025-1.14,4.015-2.28,5.976-3.425c9.154-5.34,17.637-10.719,25.493-16.122c0.56-0.39,1.118-0.774,1.674-1.16
	c3.328-2.319,6.541-4.643,9.642-6.972c0.516-0.39,1.03-0.775,1.542-1.164c2.041-1.555,4.034-3.109,5.978-4.663
	c1.459-1.17,2.889-2.334,4.292-3.503c1.871-1.559,3.695-3.118,5.471-4.677c2.222-1.949,4.368-3.902,6.443-5.856
	c3.321-3.123,6.456-6.251,9.415-9.379c0.741-0.784,1.469-1.564,2.185-2.348c0.719-0.779,1.425-1.564,2.122-2.343
	c1.391-1.564,2.74-3.128,4.047-4.692c0.653-0.785,1.296-1.564,1.929-2.348l0.94-1.169c1.554-1.954,3.042-3.907,4.468-5.856
	l0.848-1.174c0.56-0.779,1.11-1.559,1.649-2.338c1.62-2.339,3.15-4.677,4.594-7.011c0.479-0.775,0.952-1.554,1.413-2.329
	l0.687-1.169c0.45-0.775,0.894-1.549,1.328-2.324l0.643-1.164c0.424-0.775,0.838-1.55,1.245-2.324
	c0.811-1.55,1.586-3.094,2.324-4.638c0.37-0.775,0.728-1.545,1.082-2.314l0.519-1.159c0.344-0.77,0.677-1.54,1.001-2.304
	c6.665-15.766,9.674-31.25,9.99-46.173c0.017-0.726,0.025-1.452,0.03-2.178C1326.413,1581.49,1326.408,1580.769,1326.398,1580.043z"
	/>
<path style="fill:#FFFFFF;" d="M1091.86,987.289c-58.171-97.262-159.827-140.229-227.052-95.975
	c-67.226,44.248-74.563,158.967-16.39,256.224c58.173,97.257,159.827,140.229,227.052,95.976
	C1142.696,1199.264,1150.033,1084.545,1091.86,987.289z"/>
<path style="fill:#356EB5;" d="M1079.923,995.142c-48.039-80.312-131.985-115.795-187.498-79.254
	c-16.2,10.665-28.185,26.285-35.847,45.052l-0.012,0.024c-0.86,2.115-1.669,4.268-2.419,6.456l-0.029,0.078
	c-0.497,1.457-0.972,2.928-1.423,4.419l-0.019,0.058c-0.451,1.496-0.88,3.011-1.284,4.54v0.005c-0.604,2.29-1.152,4.614-1.647,6.972
	l-0.024,0.117c-0.324,1.559-0.626,3.133-0.901,4.721l-0.008,0.049c-0.417,2.392-0.777,4.808-1.082,7.259l-0.012,0.098
	c-0.2,1.607-0.375,3.23-0.526,4.862l-0.017,0.18c-0.149,1.632-0.275,3.269-0.375,4.921l-0.007,0.122
	c-0.049,0.779-0.09,1.564-0.127,2.348l-0.009,0.195c-0.073,1.637-0.124,3.284-0.154,4.936l-0.003,0.282
	c-0.027,1.656-0.027,3.318-0.007,4.989l0.005,0.205c0.01,0.809,0.027,1.617,0.049,2.427l0.003,0.107
	c0.024,0.853,0.053,1.705,0.09,2.563l0.008,0.151c0.034,0.779,0.073,1.564,0.117,2.348l0.017,0.341
	c0.097,1.666,0.214,3.347,0.356,5.028l0.029,0.336c0.068,0.789,0.141,1.583,0.22,2.373l0.014,0.166
	c0.083,0.848,0.173,1.696,0.268,2.543l0.036,0.302c0.085,0.765,0.178,1.525,0.273,2.29l0.041,0.341
	c0.215,1.676,0.451,3.357,0.709,5.038l0.075,0.501c0.261,1.671,0.543,3.352,0.848,5.033l0.078,0.433
	c0.136,0.736,0.275,1.472,0.419,2.212l0.073,0.38c0.166,0.843,0.336,1.69,0.514,2.534l0.063,0.307
	c0.156,0.736,0.317,1.476,0.48,2.217l0.12,0.536c0.375,1.671,0.772,3.347,1.191,5.023l0.137,0.546
	c0.188,0.745,0.38,1.491,0.577,2.241l0.075,0.287c0.224,0.848,0.453,1.691,0.687,2.539l0.132,0.463
	c0.195,0.692,0.39,1.378,0.59,2.065l0.178,0.604c0.241,0.829,0.49,1.657,0.74,2.48l0.078,0.249c0.229,0.745,0.465,1.496,0.704,2.241
	l0.205,0.643c0.246,0.76,0.494,1.525,0.75,2.285l0.063,0.195c0.277,0.828,0.56,1.656,0.85,2.485l0.212,0.604
	c0.238,0.682,0.482,1.365,0.731,2.047l0.183,0.511c0.299,0.824,0.604,1.647,0.916,2.47l0.175,0.463
	c0.256,0.673,0.516,1.35,0.78,2.022l0.277,0.711c0.312,0.789,0.626,1.579,0.948,2.368l0.063,0.151
	c0.321,0.794,0.653,1.583,0.984,2.377l0.27,0.634c0.29,0.687,0.582,1.369,0.88,2.051l0.205,0.472
	c0.356,0.814,0.716,1.622,1.082,2.431l0.258,0.57c0.295,0.643,0.592,1.291,0.892,1.934l0.312,0.667
	c0.373,0.794,0.748,1.588,1.13,2.378l0.219,0.448c0.326,0.677,0.658,1.349,0.991,2.022l0.346,0.692
	c0.353,0.707,0.711,1.413,1.074,2.119l0.163,0.317c0.409,0.799,0.826,1.589,1.245,2.383l0.361,0.677
	c0.334,0.624,0.67,1.252,1.011,1.876l0.329,0.604c0.434,0.789,0.873,1.578,1.316,2.363l0.285,0.502
	c0.361,0.638,0.726,1.277,1.094,1.915l0.414,0.711c0.436,0.75,0.875,1.496,1.32,2.241l0.068,0.117
	c5.63,9.413,11.754,18.207,18.265,26.344c0.434,0.546,0.87,1.087,1.309,1.623c2.623,3.215,5.313,6.328,8.053,9.335
	c0.456,0.502,0.913,0.999,1.374,1.496c5.06,5.442,10.297,10.514,15.676,15.206c3.42,2.987,6.899,5.813,10.424,8.482
	c1.006,0.765,2.017,1.515,3.033,2.251c4.056,2.943,8.168,5.676,12.319,8.195c1.04,0.629,2.08,1.247,3.123,1.846
	c1.564,0.901,3.133,1.774,4.706,2.616c1.05,0.56,2.1,1.106,3.153,1.642c1.055,0.531,2.107,1.053,3.164,1.554
	c1.055,0.507,2.112,0.999,3.169,1.472c1.06,0.477,2.119,0.94,3.179,1.388c1.06,0.448,2.122,0.882,3.184,1.301
	c0.531,0.21,1.062,0.419,1.593,0.619c1.062,0.41,2.124,0.799,3.189,1.174c31.369,11.099,62.999,9.559,88.587-7.288l1.333-0.892
	l0.473-0.331l0.874-0.614l0.478-0.346l0.807-0.585l0.57-0.429l0.723-0.55l0.553-0.429l0.712-0.565l0.555-0.449l0.692-0.565
	l0.558-0.467l0.668-0.57l0.55-0.477l0.668-0.589l0.529-0.473l0.662-0.609l0.524-0.493l0.641-0.609l0.516-0.497l0.668-0.658
	l0.467-0.468l0.682-0.702l0.443-0.458c0.736-0.77,1.457-1.549,2.166-2.348l0.353-0.404l0.706-0.804l0.427-0.507l0.606-0.716
	l0.443-0.541l0.585-0.721l0.428-0.541l0.57-0.726l0.433-0.565l0.541-0.716l0.441-0.595l0.528-0.721l0.412-0.58l0.538-0.76
	l0.397-0.575l0.531-0.784l0.383-0.565l0.519-0.794l0.377-0.585l0.519-0.818l0.351-0.56l0.584-0.965l0.263-0.433
	c0.563-0.945,1.113-1.905,1.651-2.87l0.188-0.346l0.602-1.106l0.261-0.497l0.514-0.979l0.283-0.56l0.46-0.916l0.302-0.614
	l0.431-0.886l0.302-0.643l0.412-0.887l0.29-0.634l0.407-0.911l0.278-0.634l0.402-0.94l0.258-0.609l0.392-0.955l0.259-0.634
	l0.397-1.008l0.216-0.551l0.41-1.086l0.2-0.536l0.448-1.242l0.129-0.356c0.388-1.096,0.76-2.202,1.118-3.318l0.068-0.214
	c0.151-0.477,0.302-0.96,0.451-1.437l0.139-0.463l0.361-1.208l0.163-0.565l0.314-1.106l0.175-0.643l0.287-1.062l0.163-0.624
	l0.285-1.12l0.144-0.585l0.275-1.145l0.144-0.609l0.251-1.106l0.146-0.653l0.246-1.164l0.119-0.565l0.239-1.198l0.117-0.585
	l0.234-1.257l0.095-0.512c0.09-0.502,0.176-0.999,0.26-1.505l0.046-0.268c0.203-1.213,0.392-2.436,0.565-3.663l0.024-0.181
	c0.078-0.55,0.154-1.101,0.224-1.651l0.051-0.405c0.058-0.458,0.117-0.921,0.17-1.384l0.073-0.643l0.132-1.189l0.068-0.672
	l0.12-1.213l0.056-0.609l0.11-1.247l0.051-0.653l0.093-1.223l0.046-0.658l0.076-1.198l0.041-0.707l0.061-1.213l0.031-0.653
	c0.022-0.453,0.039-0.906,0.056-1.359l0.017-0.516c0.017-0.482,0.031-0.97,0.044-1.457l0.012-0.458
	c0.013-0.541,0.02-1.087,0.027-1.633l0.005-0.248C1112.744,1072.365,1102.099,1032.219,1079.923,995.142z"/>
<path style="fill:#D34734;" d="M1816.141,1000.229c-8.633,1.573-17.345,2.953-26.136,4.131c-20.969,2.811-41.817,4.355-62.504,4.677
	c-0.901,0.015-1.8,0.029-2.702,0.039l-0.745,0.005c-1.323,0.009-2.648,0.019-3.968,0.019l-0.002,0.005
	c-262.375,0.555-491.651-193.856-527.454-460.765c-9.895-73.764-4.071-146.039,14.892-213.518
	c-13.963,5.362-27.785,11.018-41.581,16.877c-14.755,64.31-18.395,132.285-9.118,201.445
	c36.75,273.953,264.377,476.438,530.811,491.186l-0.002,0.005c1.164,0.063,2.331,0.122,3.498,0.18l1.206,0.054
	c0.621,0.029,1.24,0.058,1.861,0.087c0.697,0.029,1.393,0.058,2.09,0.088l0.921,0.034c0.882,0.035,1.766,0.068,2.65,0.098
	l0.207,0.005c6.005,0.2,12.027,0.302,18.066,0.312h0.582c0.755,0,1.513,0,2.271-0.005l1.189-0.005
	c0.626-0.005,1.254-0.01,1.883-0.014c0.577-0.005,1.157-0.01,1.737-0.02c0.451-0.005,0.904-0.01,1.357-0.015
	c0.955-0.015,1.91-0.034,2.867-0.048l0.28-0.005c18.94-0.38,38.039-1.705,57.237-4.044c9.757-13.442,19.289-27.011,28.634-40.813
	L1816.141,1000.229z"/>
<path style="fill:#D34734;" d="M2042.636,365.226c-0.026-0.468-0.056-0.933-0.087-1.396l-0.054-0.821
	c-0.036-0.526-0.075-1.047-0.117-1.566l-0.051-0.66c-0.048-0.58-0.097-1.155-0.151-1.727l-0.049-0.556
	c-0.058-0.607-0.117-1.21-0.18-1.81l-0.047-0.436c-0.068-0.638-0.139-1.272-0.214-1.9l-0.039-0.327
	c-0.075-0.611-0.151-1.218-0.232-1.822l-0.02-0.139l-0.044-0.329l-0.136-0.96l-0.173-1.177l-0.056-0.368
	c-0.198-1.291-0.41-2.555-0.636-3.795l-0.034-0.256l-0.224-1.057c-1.225-6.231-2.858-11.866-4.945-16.797
	c-23.846-56.27-144.592-75.586-215.858-82.429c-116.96-11.286-236.161-4.355-351.615,16.546
	c-54.345,9.842-108.046,22.93-160.818,39.07c-31.048,72.119-43.589,153.315-32.383,236.845
	c32.955,245.685,258.86,418.153,504.545,385.198c4.224-0.565,8.429-1.194,12.609-1.871c4.748-0.775,9.467-1.617,14.156-2.538
	c0.517-0.097,1.031-0.2,1.545-0.302l1.05-0.21c24.611-4.941,48.419-11.878,71.222-20.59
	c43.988-78.909,80.385-162.002,108.446-247.834c1.364-4.19,2.84-8.711,4.326-13.544c1.135-3.591,2.29-7.391,3.484-11.299
	c0.271-0.896,0.541-1.803,0.814-2.708c0.253-0.843,0.506-1.691,0.762-2.538c0.69-2.285,1.386-4.604,2.097-6.962
	c0.821-2.816,1.632-5.686,2.49-8.614c1.286-4.39,2.558-8.882,3.818-13.476c1.308-4.604,2.553-9.3,3.836-14.104l0.005-0.053h-0.012
	c0.21-0.76,0.417-1.525,0.626-2.29c1.106-4.064,2.18-8.166,3.242-12.341c0.361-1.335,0.689-2.66,1.009-3.99l0.246-1.018
	c0.502-1.954,0.999-3.917,1.493-5.89c2.039-8.117,4.02-16.405,5.951-24.794c1.708-7.405,3.355-14.899,4.933-22.414
	c0.219-1.05,0.441-2.097,0.657-3.148l0.222-1.067c0.329-1.601,0.656-3.201,0.979-4.801l0.036-0.18
	c0.329-1.634,0.656-3.269,0.977-4.904l0.103-0.511c0.246-1.262,0.49-2.522,0.733-3.781l0.246-1.259
	c1.014-5.24,1.973-10.524,2.887-15.749c0.543-3.013,1.042-6.056,1.51-9.067c0.188-1.157,0.373-2.314,0.558-3.469
	c0.326-2.017,0.638-4.022,0.928-6.034c0.209-1.384,0.412-2.762,0.612-4.141c0.414-2.748,0.797-5.493,1.145-8.234
	C2042.236,410.607,2043.861,385.961,2042.636,365.226z"/>
<path style="fill:#DA802E;" d="M499.071,1589.027c-15.642-16.239-33.025-37.291-50.263-60.955
	c-66.18,34.397-127.13,64.478-171.98,86.168C322.56,1626.167,413.785,1639.434,499.071,1589.027z"/>
<path style="fill:#DA802E;" d="M365.71,1381.539c-46.575,32.804-94.797,89.754-113.533,188.58
	c37.82-32.127,89.074-74.957,146.122-120.687C385.52,1426.606,374.262,1403.517,365.71,1381.539z"/>
<path style="fill:#AA3324;" d="M1076.564,1544.915c29.72,95.937-8.918,247.683-487.123,316.77h-0.005
	c1.486,3.547,5.023,10.665,7.464,15.454l0.495,0.965c0.263,0.516,0.511,0.999,0.733,1.427l0.599,1.15l0.28,0.531l0.319,0.59
	c132.414-13.827,241.861-31.148,332.017-50.87c1.41-0.307,2.813-0.614,4.212-0.926c50.375-11.138,94.662-23.026,133.517-35.479
	c1.079-0.346,2.154-0.691,3.225-1.038c20.348-6.592,39.186-13.335,56.614-20.205c0.918-0.36,1.829-0.721,2.74-1.086
	c12.73-5.072,24.699-10.207,35.942-15.406c0.804-0.371,1.603-0.741,2.397-1.116c3.978-1.856,7.866-3.722,11.662-5.593
	c0.757-0.375,1.513-0.75,2.266-1.125c4.511-2.251,8.894-4.507,13.147-6.777c0.709-0.375,1.415-0.755,2.117-1.13
	c2.809-1.515,5.562-3.03,8.258-4.556c2.025-1.14,4.015-2.28,5.976-3.425c9.154-5.34,17.637-10.719,25.493-16.122
	c0.56-0.39,1.118-0.774,1.674-1.16c3.328-2.319,6.541-4.643,9.642-6.972c0.516-0.39,1.03-0.775,1.542-1.164
	c2.041-1.555,4.034-3.109,5.978-4.663c1.459-1.17,2.889-2.334,4.292-3.503c1.871-1.559,3.695-3.118,5.471-4.677
	c2.222-1.949,4.368-3.902,6.443-5.856c3.321-3.123,6.456-6.251,9.415-9.379c0.741-0.784,1.469-1.564,2.185-2.348
	c0.719-0.779,1.425-1.564,2.122-2.343c1.391-1.564,2.74-3.128,4.047-4.692c0.653-0.785,1.296-1.564,1.929-2.348l0.94-1.169
	c1.554-1.954,3.042-3.907,4.468-5.856l0.848-1.174c0.56-0.779,1.11-1.559,1.649-2.338c1.62-2.339,3.15-4.677,4.594-7.011
	c0.479-0.775,0.952-1.554,1.413-2.329l0.687-1.169c0.45-0.775,0.894-1.549,1.328-2.324l0.643-1.164
	c0.424-0.775,0.838-1.55,1.245-2.324c0.811-1.55,1.586-3.094,2.324-4.638c0.37-0.775,0.728-1.545,1.082-2.314l0.519-1.159
	c0.344-0.77,0.677-1.54,1.001-2.304c6.665-15.766,9.674-31.25,9.99-46.173c0.017-0.726,0.025-1.452,0.03-2.178
	c0.002-0.726-0.003-1.447-0.013-2.173c-0.017-1.442-0.063-2.879-0.129-4.317c-0.034-0.716-0.076-1.432-0.12-2.144
	c-0.046-0.716-0.097-1.427-0.156-2.134c-0.085-1.067-0.185-2.129-0.295-3.191l-0.117-1.057c-0.12-1.052-0.251-2.109-0.395-3.157
	c-0.095-0.696-0.198-1.398-0.305-2.09c-0.158-1.048-0.331-2.085-0.514-3.123c-0.365-2.071-0.777-4.127-1.23-6.168
	c-0.151-0.682-0.307-1.359-0.468-2.036l-0.246-1.013c-0.329-1.349-0.677-2.689-1.043-4.024c-0.185-0.667-0.37-1.33-0.563-1.993
	c-0.287-0.994-0.585-1.983-0.889-2.972c-0.205-0.653-0.412-1.311-0.624-1.964c-0.212-0.653-0.429-1.301-0.648-1.949
	c-0.66-1.949-1.352-3.874-2.078-5.783c-0.241-0.633-0.485-1.267-0.733-1.895c-0.248-0.633-0.502-1.262-0.755-1.89
	c-0.255-0.624-0.514-1.247-0.774-1.871c-0.524-1.242-1.06-2.48-1.608-3.703c-0.273-0.614-0.548-1.223-0.828-1.832
	c-0.28-0.609-0.563-1.213-0.848-1.817c-0.283-0.604-0.573-1.203-0.863-1.802c-0.434-0.896-0.875-1.788-1.323-2.675
	c-0.446-0.887-0.899-1.764-1.355-2.641c-0.609-1.164-1.228-2.319-1.854-3.464c-0.47-0.863-0.945-1.715-1.425-2.563
	c-0.319-0.565-0.639-1.125-0.962-1.686l-0.485-0.833c-0.324-0.56-0.651-1.111-0.979-1.661l-0.492-0.828
	c-1.318-2.192-2.658-4.336-4.017-6.441c-0.341-0.526-0.682-1.048-1.023-1.564c-0.341-0.521-0.684-1.038-1.028-1.549
	c-2.061-3.084-4.153-6.056-6.251-8.916c-0.351-0.477-0.699-0.95-1.05-1.418c-0.875-1.174-1.752-2.329-2.624-3.464l-0.526-0.677
	c-1.223-1.579-2.441-3.113-3.654-4.609c-1.21-1.491-2.414-2.943-3.605-4.351l-0.509-0.604l-0.009-0.009
	C1212.31,1497.466,1145.229,1523.824,1076.564,1544.915z"/>
<path style="fill:#AA3324;" d="M586.669,798.037c1.654-2.178,3.308-4.346,4.962-6.509c37.946-49.569,79.432-96.375,123.895-140.17
	l0.107-0.146c1.045-1.442,2.087-2.874,3.128-4.311l0.198-0.273c-0.005-0.005-2.198-4.108-6.426-10.7
	c-0.97-1.51-2.047-3.152-3.228-4.906c-0.646-0.96-1.32-1.949-2.026-2.968c-0.473-0.682-0.957-1.374-1.457-2.08
	c-0.497-0.706-1.011-1.422-1.537-2.153l-0.799-1.106c-0.538-0.74-1.091-1.491-1.659-2.256c-0.424-0.57-0.858-1.145-1.299-1.73
	c-0.733-0.97-1.486-1.959-2.263-2.958c-2.015-2.592-4.17-5.276-6.463-8.014c-0.882-1.057-1.783-2.119-2.707-3.187
	c-0.716-0.828-1.444-1.661-2.185-2.5l-0.129-0.146l-1.092-1.223l-1.174-1.296l-0.595-0.653c-0.597-0.648-1.201-1.301-1.813-1.954
	l-0.611-0.653c-0.821-0.872-1.654-1.744-2.499-2.616l-1.279-1.306l-0.645-0.653c-1.191-1.203-2.405-2.402-3.642-3.596l-0.663-0.638
	c-1.698-1.627-3.44-3.25-5.223-4.857c-0.714-0.643-1.432-1.282-2.158-1.92c-1.213-1.062-2.441-2.114-3.688-3.162
	c-0.75-0.629-1.505-1.252-2.268-1.871c-0.506-0.414-1.018-0.828-1.532-1.237c-0.514-0.41-1.03-0.819-1.552-1.228l-1.123-0.872
	l-1.235-0.945c-0.529-0.4-1.06-0.799-1.595-1.198c-0.802-0.595-1.611-1.184-2.426-1.769c-0.541-0.395-1.089-0.78-1.637-1.164
	l-0.826-0.58c-0.828-0.575-1.664-1.145-2.505-1.705c-1.121-0.75-2.253-1.491-3.398-2.222c-0.57-0.366-1.145-0.726-1.725-1.087
	c-0.865-0.536-1.739-1.067-2.616-1.593l-0.882-0.521c-1.179-0.692-2.368-1.369-3.569-2.036c-0.599-0.332-1.203-0.663-1.807-0.984
	c-0.607-0.326-1.216-0.648-1.827-0.969l-0.919-0.473c-0.921-0.473-1.849-0.935-2.782-1.388c-0.933-0.458-1.873-0.902-2.819-1.34
	c-1.893-0.873-3.808-1.71-5.746-2.505c-0.648-0.268-1.299-0.526-1.949-0.784l-0.981-0.38c-0.653-0.253-1.311-0.497-1.971-0.74
	l-1.252-0.454c-0.577-0.204-1.157-0.409-1.737-0.604c-2.005-0.687-4.032-1.325-6.085-1.914l-1.25-0.356
	c-0.957-0.263-1.917-0.521-2.884-0.765c-2.083-0.526-4.19-1.004-6.319-1.433c-0.709-0.141-1.42-0.277-2.136-0.404
	c-0.714-0.132-1.432-0.253-2.151-0.375c-1.082-0.176-2.166-0.336-3.257-0.487c-0.69-0.092-1.379-0.18-2.071-0.263l-1.22-0.141
	c-7.352-0.804-14.953-0.96-22.791-0.361c-0.785,0.058-1.569,0.127-2.358,0.205c-1.578,0.151-3.164,0.331-4.763,0.546
	c-0.797,0.107-1.598,0.219-2.399,0.341c-1.206,0.185-2.414,0.39-3.63,0.609c-0.811,0.146-1.622,0.302-2.436,0.468
	c-1.223,0.243-2.451,0.506-3.683,0.789c-0.821,0.19-1.644,0.39-2.471,0.594c-0.826,0.21-1.654,0.424-2.484,0.643
	c-0.831,0.224-1.664,0.458-2.5,0.702c-0.836,0.238-1.671,0.487-2.511,0.75c-0.841,0.258-1.683,0.526-2.526,0.804
	c-2.534,0.833-5.086,1.744-7.659,2.743c-0.858,0.331-1.718,0.677-2.58,1.028l-1.294,0.536c-0.865,0.36-1.73,0.73-2.599,1.111
	c-1.164,0.512-2.333,1.043-3.508,1.589c-0.575,0.268-1.152,0.541-1.73,0.818l-1.318,0.639c-2.397,1.174-4.811,2.421-7.242,3.746
	c-0.69,0.375-1.379,0.755-2.069,1.145c-1.342,0.755-2.689,1.53-4.039,2.329c-0.451,0.268-0.901,0.541-1.354,0.809
	c-2.256,1.365-4.526,2.792-6.809,4.288c-0.913,0.599-1.829,1.208-2.745,1.827c-2.293,1.555-4.599,3.172-6.919,4.867
	c-0.928,0.678-1.856,1.365-2.787,2.061c-0.933,0.702-1.866,1.413-2.801,2.134c-0.568,0.438-1.135,0.882-1.703,1.33
	c-1.048,0.824-2.1,1.661-3.155,2.514c-0.731,0.595-1.462,1.189-2.197,1.798c-0.945,0.779-1.893,1.573-2.841,2.382
	c-1.203,1.018-2.409,2.061-3.617,3.118l-1.342,1.184c-2.646,2.344-5.303,4.78-7.976,7.308c-0.485,0.458-0.969,0.921-1.452,1.383
	c-0.723,0.697-1.449,1.398-2.175,2.105c-0.731,0.716-1.464,1.432-2.197,2.163c-0.974,0.965-1.951,1.944-2.931,2.938
	c-0.736,0.745-1.476,1.505-2.215,2.265c-0.733,0.755-1.464,1.515-2.2,2.285c-0.984,1.033-1.968,2.075-2.957,3.133
	c-0.986,1.057-1.976,2.129-2.967,3.211c-2.709,2.962-5.43,6.027-8.165,9.189c-0.538,0.624-1.077,1.247-1.615,1.875
	c-0.733,0.858-1.466,1.72-2.202,2.592c-0.501,0.594-1.006,1.193-1.51,1.798c-1.006,1.203-2.017,2.426-3.028,3.659
	c-2.022,2.466-4.051,4.989-6.088,7.571c-1.018,1.291-2.039,2.592-3.06,3.912c-0.512,0.658-1.023,1.32-1.535,1.988
	c-0.733,0.955-1.467,1.92-2.2,2.884c-0.935,1.238-1.873,2.485-2.811,3.742c-0.899,1.203-1.798,2.417-2.697,3.64
	c-0.516,0.706-1.033,1.408-1.549,2.119c-1.25,1.715-2.502,3.454-3.754,5.214c-0.609,0.853-1.216,1.71-1.825,2.572
	c-0.58,0.818-1.16,1.642-1.739,2.475c-1.198,1.71-2.397,3.44-3.601,5.194c-1.917,2.796-3.839,5.642-5.766,8.536
	c-0.702,1.057-1.403,2.115-2.107,3.182c-2.633,4-5.279,8.098-7.934,12.292c-0.858,1.354-1.715,2.724-2.577,4.097
	c-2.124,3.401-4.256,6.865-6.392,10.392c-0.424,0.696-0.848,1.398-1.272,2.105c-1.71,2.835-3.425,5.719-5.142,8.638
	c-0.446,0.76-0.892,1.515-1.338,2.28c-0.514,0.877-1.028,1.759-1.54,2.646c-0.687,1.179-1.372,2.363-2.056,3.557
	c-1.045,1.817-2.092,3.649-3.143,5.496c-2.105,3.712-4.214,7.488-6.331,11.323c-0.599,1.087-1.199,2.178-1.8,3.279
	c-0.497,0.906-0.994,1.818-1.491,2.729c-0.592,1.091-1.184,2.183-1.778,3.284c-1.055,1.959-2.112,3.927-3.172,5.914
	c-0.582,1.097-1.164,2.193-1.749,3.299c-0.521,0.984-1.04,1.973-1.562,2.962c-1.125,2.144-2.25,4.302-3.379,6.48
	c-1.371,2.645-2.743,5.315-4.117,8.014c-1.386,2.719-2.772,5.466-4.161,8.239c-1.109,2.212-2.219,4.443-3.33,6.689
	c-1.126,2.275-2.251,4.565-3.376,6.874c-0.543,1.116-1.089,2.232-1.632,3.357c-0.577,1.189-1.157,2.387-1.734,3.591
	c-1.097,2.276-2.193,4.565-3.291,6.879c-0.592,1.238-1.181,2.485-1.774,3.737c-0.828,1.754-1.656,3.513-2.484,5.281
	c-1.995,4.263-3.993,8.585-5.998,12.96c-0.823,1.802-1.646,3.61-2.473,5.432c-0.879,1.934-1.759,3.888-2.638,5.847
	c-0.996,2.217-1.995,4.453-2.994,6.699c-2.497,5.618-4.999,11.328-7.508,17.125c-0.419,0.969-0.838,1.939-1.257,2.914
	c-1.228,2.845-2.456,5.715-3.683,8.609c-0.487,1.14-0.974,2.29-1.462,3.439c-1.815,4.288-3.632,8.624-5.452,13.009
	c-0.478,1.149-0.955,2.304-1.432,3.459c-4.144,10.027-8.305,20.307-12.483,30.845c-0.46,1.155-0.918,2.319-1.379,3.484
	c-2.453,6.217-4.913,12.521-7.376,18.914c-0.448,1.169-0.899,2.334-1.347,3.508c-0.721,1.881-1.444,3.771-2.168,5.667
	c-0.443,1.169-0.889,2.338-1.335,3.513c-3.075,8.102-6.158,16.346-9.25,24.731c-0.431,1.174-0.865,2.353-1.298,3.532
	c-7.238,19.713-14.519,40.205-21.841,61.5c-0.407,1.189-0.816,2.383-1.225,3.576c-13.508,39.43-27.15,81.598-40.914,126.675
	c0.268,0.229,0.899,0.735,1.773,1.432l0.458,0.36l0.755,0.6l1.126,0.882l0.913,0.711l0.317,0.249l1.313,1.018l0.338,0.258
	l0.687,0.531l0.697,0.536l0.701,0.536l0.353,0.268l0.706,0.541c2.943,2.236,5.856,4.389,7.715,5.627
	C339.363,744.667,499.464,746.767,586.669,798.037z"/>
<path style="fill:#F7FCFF;" d="M690.72,815.43c11.912-13.549,23.712-27.181,36.093-40.292c12.083-13.374,24.463-26.48,37.106-39.328
	C814.077,684,867.022,634.841,922.5,587.679c27.73-23.62,56.058-46.787,84.952-69.715c28.799-23.116,58.392-45.512,87.917-69.301
	c-36.619,9.817-71.951,23.457-106.373,39.179c-34.421,15.749-67.683,34.059-99.917,54.131
	c-64.278,40.448-123.898,88.784-177.008,143.542c-13.213,13.754-26.107,27.815-38.612,42.227
	c-12.348,14.538-24.443,29.301-35.958,44.507c-11.466,15.245-22.641,30.752-33.038,46.455
	c-10.602,15.64-20.655,31.688-30.387,47.917c-19.345,32.54-37.023,66.149-52.146,100.911
	c-14.977,34.812-27.827,70.597-36.039,107.635c44.505-61.154,88.472-119.391,134.785-176.039
	C643.799,870.933,667.083,842.514,690.72,815.43z"/>
<path style="fill:#C5DDF1;" d="M485.568,1380.945c28.436-21.802,57.316-43.401,85.868-64.005
	c-52.543-83.81-109.04-196.331-130.699-288.638l-0.003-0.005l-0.468,0.95c-0.227,0.453-0.453,0.906-0.677,1.359
	c-0.482,0.979-0.965,1.954-1.445,2.928l-0.295,0.6c-0.58,1.179-1.157,2.363-1.734,3.547l-0.073,0.156
	c-11.5,23.649-22.102,47.674-31.61,72.01l-0.066,0.171c-0.483,1.233-0.962,2.47-1.437,3.703l-0.197,0.516
	c-0.407,1.057-0.814,2.114-1.216,3.177l-0.44,1.16c-0.336,0.887-0.668,1.773-1.001,2.66c-0.195,0.521-0.392,1.042-0.585,1.564
	c-0.28,0.75-0.56,1.506-0.838,2.256c-0.243,0.657-0.487,1.32-0.731,1.978c-0.224,0.614-0.448,1.232-0.672,1.847
	c-0.29,0.794-0.58,1.588-0.868,2.382c-0.168,0.468-0.336,0.935-0.504,1.403c-0.346,0.964-0.692,1.929-1.033,2.894l-0.28,0.789
	c-0.414,1.169-0.826,2.333-1.233,3.503l-0.075,0.22c-3.323,9.529-6.47,19.104-9.428,28.716
	C406.525,1235.97,443.188,1309.89,485.568,1380.945z"/>
<path style="fill:#C5DDF1;" d="M1808.378,917.637l-1.05,0.21c-0.514,0.102-1.028,0.204-1.545,0.302
	c-4.689,0.921-9.408,1.764-14.156,2.538c-22.555,30.563-46.445,60.112-71.542,88.414c1.32,0,2.646-0.01,3.968-0.019l0.745-0.005
	c0.901-0.01,1.801-0.024,2.702-0.039c20.66-0.331,41.515-1.876,62.49-4.687c8.797-1.179,17.518-2.558,26.159-4.136l-0.008,0.015
	l0.024-0.005c22.592-33.442,43.798-67.893,63.435-103.177C1856.797,905.759,1832.989,912.697,1808.378,917.637z"/>
<path style="fill:#C5DDF1;" d="M1730.295,1045.082l-0.28,0.005c-0.957,0.014-1.912,0.034-2.867,0.048
	c-0.453,0.005-0.906,0.01-1.357,0.015c-0.58,0.01-1.159,0.015-1.737,0.02c-0.629,0.005-1.257,0.01-1.883,0.014l-1.189,0.005
	c-0.758,0.005-1.513,0.005-2.271,0.005h-0.582c-6.039-0.01-12.061-0.112-18.066-0.312l-0.207-0.005
	c-0.884-0.029-1.769-0.063-2.65-0.098l-0.921-0.034c-0.697-0.029-1.394-0.058-2.09-0.088c-0.621-0.029-1.24-0.058-1.861-0.087
	l-1.206-0.054c-1.167-0.058-2.334-0.117-3.498-0.18c-11.408,11.995-23.018,23.654-34.867,35.089
	c-141.525,136.716-314.034,237.705-499.025,295.327c-156.747,48.833-409.581,99.152-486.197,62.143
	c-5.44-2.626-12.611-8.657-21.062-17.529c-32.416,19.099-66.114,38.114-99.812,56.56c39.637,57.349,80.716,109.267,117.924,149.559
	c79.836-4.093,182.092-22.032,276.519-44.224c46.531-10.938,91.162-22.909,130.27-34.768c1.73-0.521,3.457-1.047,5.184-1.578
	c68.665-21.091,135.747-47.449,200.436-78.752c121.793-58.938,235.101-135.406,334.516-227.23
	c65.001-60.063,123.888-126.49,176.017-197.895C1768.334,1043.376,1749.236,1044.701,1730.295,1045.082z"/>
<path style="fill:#605E6F;" d="M398.299,1449.432c27.995-22.436,57.386-45.573,87.269-68.487
	c-42.38-71.055-79.043-144.974-101.739-212.161l-0.003-0.009c-1.077-3.187-2.124-6.359-3.138-9.516
	c-14.891,44.901-25.781,90.714-31.447,137.072c-1.294,10.592-0.577,22.607,1.785,35.62c2.792,15.367,7.883,32.126,14.682,49.588
	C374.262,1403.517,385.52,1426.606,398.299,1449.432z"/>
<path style="fill:#605E6F;" d="M546.667,1475.926c-33.023,18.075-66.044,35.61-97.859,52.146
	c17.238,23.664,34.621,44.716,50.263,60.955c15.245,15.83,28.836,27.089,39.026,31.742l0.709,0.317
	c27.145,12.073,74.37,14.539,131.556,10.592c-1.912-2.031-3.837-4.097-5.771-6.192
	C627.383,1585.193,586.304,1533.276,546.667,1475.926z"/>
<path style="fill:#AA3324;" d="M2036.075,455.238c0.326-2.017,0.638-4.022,0.928-6.034c0.107-0.726,0.212-1.452,0.312-2.183
	c0.102-0.653,0.2-1.306,0.3-1.959c0.414-2.748,0.797-5.493,1.145-8.234c3.476-26.221,5.101-50.867,3.875-71.603
	c-0.026-0.468-0.056-0.933-0.087-1.396l-0.054-0.821c-0.036-0.526-0.075-1.047-0.117-1.566l-0.051-0.66
	c-0.048-0.58-0.097-1.155-0.151-1.727l-0.049-0.556c-0.058-0.607-0.117-1.21-0.18-1.81l-0.047-0.436
	c-0.068-0.638-0.139-1.272-0.214-1.9l-0.039-0.327c-0.075-0.611-0.151-1.218-0.232-1.822l-0.02-0.139l-0.044-0.329l-0.136-0.96
	l-0.173-1.177l-0.056-0.368c-0.198-1.291-0.41-2.555-0.636-3.795l-0.034-0.256l-0.224-1.057c-0.353-1.669-0.711-3.328-1.096-4.911
	c-10.697,64.287-28.79,131.649-40.607,170.102c-25.508,83.143-58.772,163.581-99.094,239.912
	c-17.971,34.124-37.459,67.406-58.166,99.761c-8.626,13.34-17.386,26.441-26.322,39.41c-7.547,10.904-15.274,21.628-23.167,32.268
	c4.741-0.765,9.457-1.608,14.141-2.519c0.517-0.097,1.031-0.2,1.545-0.302l1.05-0.21c24.611-4.941,48.419-11.878,71.222-20.59
	c43.988-78.909,80.385-162.002,108.446-247.834c1.364-4.19,2.84-8.711,4.326-13.544c1.135-3.591,2.29-7.391,3.484-11.299
	c0.271-0.896,0.541-1.803,0.814-2.708c0.253-0.843,0.506-1.691,0.762-2.538c0.69-2.285,1.386-4.604,2.097-6.962
	c0.821-2.816,1.632-5.686,2.49-8.614c1.286-4.39,2.558-8.882,3.818-13.476c1.308-4.604,2.553-9.3,3.836-14.104l0.005-0.053h-0.012
	c0.21-0.76,0.417-1.525,0.626-2.29c1.106-4.064,2.18-8.166,3.242-12.341c0.361-1.335,0.689-2.66,1.009-3.99l0.246-1.018
	c0.502-1.954,0.999-3.917,1.493-5.89c2.039-8.117,4.02-16.405,5.951-24.794c1.708-7.405,3.355-14.899,4.933-22.414
	c0.219-1.05,0.441-2.097,0.657-3.148l0.222-1.067c0.329-1.601,0.656-3.201,0.979-4.801l0.036-0.18
	c0.329-1.634,0.656-3.269,0.977-4.904l0.103-0.511c0.246-1.262,0.49-2.522,0.733-3.781l0.246-1.259
	c1.014-5.24,1.973-10.524,2.887-15.749c0.543-3.013,1.042-6.056,1.51-9.067c0.07-0.456,0.144-0.916,0.212-1.371
	C2035.847,456.634,2035.961,455.937,2036.075,455.238z"/>
<path style="fill:#AA3324;" d="M1790.005,1004.361c-20.969,2.811-41.817,4.355-62.504,4.677c-0.901,0.015-1.8,0.029-2.702,0.039
	l-0.745,0.005c-1.323,0.009-2.648,0.019-3.968,0.019l-0.002,0.005c-10.575,11.985-21.391,23.746-32.451,35.225l-0.002,0.005
	c1.164,0.063,2.331,0.122,3.498,0.18l1.206,0.054c0.621,0.029,1.24,0.058,1.861,0.087c0.697,0.029,1.393,0.058,2.09,0.088
	l0.921,0.034c0.882,0.035,1.766,0.068,2.65,0.098l0.207,0.005c6.005,0.2,12.027,0.302,18.066,0.312h0.582
	c0.755,0,1.513,0,2.271-0.005l1.189-0.005c0.626-0.005,1.254-0.01,1.883-0.014c0.577-0.005,1.157-0.01,1.737-0.02
	c0.451-0.005,0.904-0.01,1.357-0.015c0.955-0.015,1.91-0.034,2.867-0.048l0.28-0.005c18.94-0.38,38.039-1.705,57.237-4.044
	c9.757-13.442,19.289-27.011,28.634-40.813l-0.024,0.005C1807.508,1001.803,1798.797,1003.182,1790.005,1004.361z"/>
<path style="fill:#AA3324;" d="M762.001,1268.224L762.001,1268.224c-16.731-25.672-63.469-37.808-109.342-7.552
	c-26.297,17.344-53.605,36.341-81.223,56.268c-28.553,20.604-57.432,42.202-85.868,64.005
	c-29.883,22.914-59.274,46.051-87.269,68.487c-57.048,45.73-108.302,88.56-146.122,120.687
	c-40.755,34.626-65.912,56.818-65.912,56.818l15.086,23.148c0,0,29.152-13.447,75.476-35.844
	c44.85-21.69,105.8-51.771,171.98-86.168c31.815-16.536,64.835-34.071,97.859-52.146c33.698-18.446,67.396-37.462,99.812-56.56
	c27.252-16.054,53.598-32.171,78.278-48.063C770.959,1341.554,778.73,1293.895,762.001,1268.224z"/>
<path style="fill:#D34734;" d="M626.194,1355.254L626.194,1355.254c-11.807-18.115-45.888-25.964-80.117-3.406
	c-151.476,99.839-349.069,271.469-349.069,271.469l10.646,16.336c0,0,236.804-111.469,389.306-209.729
	C631.419,1407.722,638.001,1373.368,626.194,1355.254z"/>
<path style="fill:#24488E;" d="M1076.476,1153.491c-55.515,36.541-139.461,1.057-187.498-79.259
	c-22.175-37.072-32.823-77.218-32.4-113.291l-0.012,0.024c-0.86,2.115-1.669,4.268-2.419,6.456l-0.029,0.078
	c-0.497,1.457-0.972,2.928-1.423,4.419l-0.019,0.058c-0.451,1.496-0.88,3.011-1.284,4.54v0.005c-0.604,2.29-1.152,4.614-1.647,6.972
	l-0.024,0.117c-0.324,1.559-0.626,3.133-0.901,4.721l-0.008,0.049c-0.417,2.392-0.777,4.808-1.082,7.259l-0.012,0.098
	c-0.2,1.607-0.375,3.23-0.526,4.862l-0.017,0.18c-0.149,1.632-0.275,3.269-0.375,4.921l-0.007,0.122
	c-0.049,0.779-0.09,1.564-0.127,2.348l-0.009,0.195c-0.073,1.637-0.124,3.284-0.154,4.936l-0.003,0.282
	c-0.027,1.656-0.027,3.318-0.007,4.989l0.005,0.205c0.01,0.809,0.027,1.617,0.049,2.427l0.003,0.107
	c0.024,0.853,0.053,1.705,0.09,2.563l0.008,0.151c0.034,0.779,0.073,1.564,0.117,2.348l0.017,0.341
	c0.097,1.666,0.214,3.347,0.356,5.028l0.029,0.336c0.068,0.789,0.141,1.583,0.22,2.373l0.014,0.166
	c0.083,0.848,0.173,1.696,0.268,2.543l0.036,0.302c0.085,0.765,0.178,1.525,0.273,2.29l0.041,0.341
	c0.215,1.676,0.451,3.357,0.709,5.038l0.075,0.501c0.261,1.671,0.543,3.352,0.848,5.033l0.078,0.433
	c0.136,0.736,0.275,1.472,0.419,2.212l0.073,0.38c0.166,0.843,0.336,1.69,0.514,2.534l0.063,0.307
	c0.156,0.736,0.317,1.476,0.48,2.217l0.12,0.536c0.375,1.671,0.772,3.347,1.191,5.023l0.137,0.546
	c0.188,0.745,0.38,1.491,0.577,2.241l0.075,0.287c0.224,0.848,0.453,1.691,0.687,2.539l0.132,0.463
	c0.195,0.692,0.39,1.378,0.59,2.065l0.178,0.604c0.241,0.829,0.49,1.657,0.74,2.48l0.078,0.249c0.229,0.745,0.465,1.496,0.704,2.241
	l0.205,0.643c0.246,0.76,0.494,1.525,0.75,2.285l0.063,0.195c0.277,0.828,0.56,1.656,0.85,2.485l0.212,0.604
	c0.238,0.682,0.482,1.365,0.731,2.047l0.183,0.511c0.299,0.824,0.604,1.647,0.916,2.47l0.175,0.463
	c0.256,0.673,0.516,1.35,0.78,2.022l0.277,0.711c0.312,0.789,0.626,1.579,0.948,2.368l0.063,0.151
	c0.321,0.794,0.653,1.583,0.984,2.377l0.27,0.634c0.29,0.687,0.582,1.369,0.88,2.051l0.205,0.472
	c0.356,0.814,0.716,1.622,1.082,2.431l0.258,0.57c0.295,0.643,0.592,1.291,0.892,1.934l0.312,0.667
	c0.373,0.794,0.748,1.588,1.13,2.378l0.219,0.448c0.326,0.677,0.658,1.349,0.991,2.022l0.346,0.692
	c0.353,0.707,0.711,1.413,1.074,2.119l0.163,0.317c0.409,0.799,0.826,1.589,1.245,2.383l0.361,0.677
	c0.334,0.624,0.67,1.252,1.011,1.876l0.329,0.604c0.434,0.789,0.873,1.578,1.316,2.363l0.285,0.502
	c0.361,0.638,0.726,1.277,1.094,1.915l0.414,0.711c0.436,0.75,0.875,1.496,1.32,2.241l0.068,0.117
	c5.63,9.413,11.754,18.207,18.265,26.344c0.434,0.546,0.87,1.087,1.309,1.623c2.623,3.215,5.313,6.328,8.053,9.335
	c0.456,0.502,0.913,0.999,1.374,1.496c5.06,5.442,10.297,10.514,15.676,15.206c3.42,2.987,6.899,5.813,10.424,8.482
	c1.006,0.765,2.017,1.515,3.033,2.251c4.056,2.943,8.168,5.676,12.319,8.195c1.04,0.629,2.08,1.247,3.123,1.846
	c1.564,0.901,3.133,1.774,4.706,2.616c1.05,0.56,2.1,1.106,3.153,1.642c1.055,0.531,2.107,1.053,3.164,1.554
	c1.055,0.507,2.112,0.999,3.169,1.472c1.06,0.477,2.119,0.94,3.179,1.388c1.06,0.448,2.122,0.882,3.184,1.301
	c0.531,0.21,1.062,0.419,1.593,0.619c1.062,0.41,2.124,0.799,3.189,1.174c31.369,11.099,62.999,9.559,88.587-7.288l1.333-0.892
	l0.473-0.331l0.874-0.614l0.478-0.346l0.807-0.585l0.57-0.429l0.723-0.55l0.553-0.429l0.712-0.565l0.555-0.449l0.692-0.565
	l0.558-0.467l0.668-0.57l0.55-0.477l0.668-0.589l0.529-0.473l0.662-0.609l0.524-0.493l0.641-0.609l0.516-0.497l0.668-0.658
	l0.467-0.468l0.682-0.702l0.443-0.458c0.736-0.77,1.457-1.549,2.166-2.348l0.353-0.404l0.706-0.804l0.427-0.507l0.606-0.716
	l0.443-0.541l0.585-0.721l0.428-0.541l0.57-0.726l0.433-0.565l0.541-0.716l0.441-0.595l0.528-0.721l0.412-0.58l0.538-0.76
	l0.397-0.575l0.531-0.784l0.383-0.565l0.519-0.794l0.377-0.585l0.519-0.818l0.351-0.56l0.584-0.965l0.263-0.433
	c0.563-0.945,1.113-1.905,1.651-2.87l0.188-0.346l0.602-1.106l0.261-0.497l0.514-0.979l0.283-0.56l0.46-0.916l0.302-0.614
	l0.431-0.886l0.302-0.643l0.412-0.887l0.29-0.634l0.407-0.911l0.278-0.634l0.402-0.94l0.258-0.609l0.392-0.955l0.259-0.634
	l0.397-1.008l0.216-0.551l0.41-1.086l0.2-0.536l0.448-1.242l0.129-0.356c0.388-1.096,0.76-2.202,1.118-3.318l0.068-0.214
	c0.151-0.477,0.302-0.96,0.451-1.437l0.139-0.463l0.361-1.208l0.163-0.565l0.314-1.106l0.175-0.643l0.287-1.062l0.163-0.624
	l0.285-1.12l0.144-0.585l0.275-1.145l0.144-0.609l0.251-1.106l0.146-0.653l0.246-1.164l0.119-0.565l0.239-1.198l0.117-0.585
	l0.234-1.257l0.095-0.512c0.09-0.502,0.176-0.999,0.26-1.505l0.046-0.268c0.203-1.213,0.392-2.436,0.565-3.663l0.024-0.181
	c0.078-0.55,0.154-1.101,0.224-1.651l0.051-0.405c0.058-0.458,0.117-0.921,0.17-1.384l0.073-0.643l0.132-1.189l0.068-0.672
	l0.12-1.213l0.056-0.609l0.11-1.247l0.051-0.653l0.093-1.223l0.046-0.658l0.076-1.198l0.041-0.707l0.061-1.213l0.031-0.653
	c0.022-0.453,0.039-0.906,0.056-1.359l0.017-0.516c0.017-0.482,0.031-0.97,0.044-1.457l0.012-0.458
	c0.013-0.541,0.02-1.087,0.027-1.633l0.005-0.248C1104.659,1127.206,1092.673,1142.826,1076.476,1153.491z"/>
</svg>
